<svg width="1546" height="212" viewBox="0 0 1546 212" fill="none" xmlns="http://www.w3.org/2000/svg">
<path d="M198.814 106.9C199.614 163.2 155.614 206.7 98.7136 205.6C42.9136 206.4 -0.886376 163.7 0.0136241 108C-0.786376 51.7 43.2137 7.7 99.6137 8.8C155.914 7.9 199.614 51.2 198.814 106.9ZM159.614 107.4C159.614 69.9 132.914 44.1 99.2136 44.1C65.2136 44.1 39.0136 70.2 39.0136 107.4C39.0136 144.1 64.9137 170.2 98.9137 170.2C132.714 170.2 159.614 143.9 159.614 107.4Z" fill="url(#paint0_linear_1_16)"/>
<path d="M384.414 12C389.014 12 391.114 13.9 391.114 18.5V195.7C391.114 202.2 389.214 205.5 384.914 205.5C381.714 205.5 378.714 203.3 372.214 196.8L269.514 87.3V195.8C269.514 200.4 267.314 202.3 262.814 202.3H238.214C233.614 202.3 231.714 200.4 231.714 195.8V18.5C231.714 12 233.614 8.70001 237.614 8.70001C240.814 8.70001 244.114 10.9 250.614 17.4L353.414 127V18.5C353.414 13.9 355.314 12 359.914 12H384.414Z" fill="url(#paint1_linear_1_16)"/>
<path d="M492.314 196.3L426.314 20.4C425.514 19 425.214 17.3 425.214 15.9C425.214 13.1 427.314 11.7 431.314 11.7H456.114C462.214 11.7 463.514 13.1 466.414 20.1L504.914 127.7L542.614 27.4C546.614 17.6 548.414 15.1 552.414 15.1C556.414 15.1 558.514 17.6 561.914 27.4L599.614 126.9L637.914 20.2C640.314 13.2 642.114 11.8 648.514 11.8H672.814C676.814 11.8 678.914 13.2 678.914 16C678.914 17.4 678.614 19.1 677.814 20.5L611.814 196.4C607.614 208.4 605.514 211.2 601.514 211.2C598.114 211.2 596.014 208.4 591.714 197.3L552.214 94L512.614 197.1C508.614 208 506.314 211 502.814 211C498.914 211.1 496.814 208.3 492.314 196.3Z" fill="url(#paint2_linear_1_16)"/>
<path d="M707.214 206.9C702.714 206.9 700.914 204.9 700.914 200.2V18.5C700.914 13.8 702.714 11.8 707.214 11.8H731.214C735.714 11.8 737.814 13.8 737.814 18.5V200.2C737.814 204.9 735.714 206.9 731.214 206.9H707.214Z" fill="url(#paint3_linear_1_16)"/>
<path d="M929.914 11.8C934.414 11.8 936.514 13.8 936.514 18.5V200.2C936.514 206.9 934.714 210.2 930.414 210.2C927.214 210.2 924.314 208 918.014 201.3L817.514 89V200.2C817.514 204.9 815.414 206.9 810.914 206.9H786.914C782.414 206.9 780.614 204.9 780.614 200.2V18.5C780.614 11.8 782.414 8.5 786.414 8.5C789.614 8.5 792.714 10.7 799.114 17.4L899.714 129.7V18.5C899.714 13.8 901.514 11.8 906.014 11.8H929.914Z" fill="url(#paint4_linear_1_16)"/>
<path d="M1545.5 189.1C1545.5 201.4 1536.8 210 1524.4 210C1512 210 1503 201.4 1503 189.1C1503 177.1 1512.2 167.9 1524.4 167.9C1536.8 167.9 1545.5 176.8 1545.5 189.1Z" fill="url(#paint5_linear_1_16)"/>
<g clip-path="url(#clip0_1_16)">
<path d="M1037.49 209.784C1022.64 209.784 1009.42 207.232 997.816 202.128C986.282 196.957 977.167 189.865 970.472 180.849C963.843 171.768 960.43 161.295 960.231 149.429H1003.58C1003.85 154.401 1005.47 158.776 1008.46 162.554C1011.5 166.266 1015.55 169.15 1020.59 171.205C1025.62 173.259 1031.29 174.287 1037.59 174.287C1044.15 174.287 1049.95 173.127 1054.99 170.807C1060.03 168.487 1063.97 165.272 1066.82 161.162C1069.67 157.052 1071.1 152.312 1071.1 146.943C1071.1 141.508 1069.57 136.702 1066.52 132.526C1063.54 128.283 1059.23 124.969 1053.6 122.582C1048.03 120.196 1041.4 119.003 1033.71 119.003H1014.72V87.3835H1033.71C1040.21 87.3835 1045.94 86.2566 1050.91 84.0028C1055.95 81.749 1059.86 78.6335 1062.64 74.6562C1065.43 70.6127 1066.82 65.9062 1066.82 60.5369C1066.82 55.4328 1065.59 50.9583 1063.14 47.1136C1060.76 43.2026 1057.38 40.1534 1053 37.9659C1048.69 35.7784 1043.65 34.6847 1037.89 34.6847C1032.05 34.6847 1026.72 35.7453 1021.88 37.8665C1017.04 39.9214 1013.16 42.8712 1010.24 46.7159C1007.33 50.5606 1005.77 55.0682 1005.57 60.2386H964.307C964.506 48.5057 967.854 38.1648 974.35 29.2159C980.846 20.267 989.596 13.2737 1000.6 8.23579C1011.67 3.13162 1024.17 0.579536 1038.09 0.579536C1052.14 0.579536 1064.43 3.13162 1074.97 8.23579C1085.51 13.34 1093.7 20.2339 1099.53 28.9176C1105.43 37.535 1108.35 47.2131 1108.28 57.9517C1108.35 69.3532 1104.8 78.8655 1097.64 86.4886C1090.55 94.1117 1081.3 98.9508 1069.9 101.006V102.597C1084.88 104.519 1096.29 109.723 1104.11 118.207C1112 126.626 1115.91 137.166 1115.84 149.827C1115.91 161.427 1112.56 171.735 1105.8 180.75C1099.1 189.765 1089.86 196.858 1078.06 202.028C1066.26 207.199 1052.74 209.784 1037.49 209.784ZM1224.94 209.784C1214.47 209.718 1204.36 207.961 1194.62 204.514C1184.94 201.067 1176.25 195.466 1168.56 187.71C1160.88 179.955 1154.78 169.68 1150.27 156.886C1145.83 144.093 1143.61 128.383 1143.61 109.756C1143.67 92.6534 1145.63 77.374 1149.47 63.9176C1153.38 50.3949 1158.95 38.9271 1166.18 29.5142C1173.47 20.1013 1182.19 12.9422 1192.33 8.03692C1202.47 3.06533 1213.84 0.579536 1226.43 0.579536C1240.02 0.579536 1252.02 3.23106 1262.43 8.53409C1272.84 13.7708 1281.19 20.8968 1287.49 29.9119C1293.85 38.9271 1297.69 49.036 1299.02 60.2386H1256.56C1254.9 53.1458 1251.42 47.5777 1246.12 43.5341C1240.82 39.4905 1234.26 37.4688 1226.43 37.4688C1213.18 37.4688 1203.1 43.2358 1196.21 54.7699C1189.38 66.304 1185.9 81.9811 1185.77 101.801H1187.16C1190.21 95.7689 1194.32 90.6316 1199.49 86.3892C1204.72 82.0805 1210.66 78.7992 1217.29 76.5455C1223.98 74.2254 1231.04 73.0653 1238.47 73.0653C1250.53 73.0653 1261.27 75.9157 1270.68 81.6165C1280.09 87.2509 1287.52 95.0066 1292.95 104.884C1298.39 114.76 1301.11 126.062 1301.11 138.79C1301.11 152.578 1297.89 164.841 1291.46 175.58C1285.1 186.318 1276.18 194.737 1264.72 200.835C1253.31 206.867 1240.06 209.85 1224.94 209.784ZM1224.74 175.977C1231.37 175.977 1237.31 174.386 1242.54 171.205C1247.78 168.023 1251.89 163.714 1254.87 158.278C1257.85 152.843 1259.35 146.744 1259.35 139.983C1259.35 133.222 1257.85 127.156 1254.87 121.787C1251.95 116.418 1247.91 112.142 1242.74 108.96C1237.57 105.778 1231.67 104.188 1225.04 104.188C1220.07 104.188 1215.46 105.116 1211.22 106.972C1207.04 108.828 1203.37 111.413 1200.18 114.727C1197.07 118.042 1194.62 121.886 1192.83 126.261C1191.04 130.57 1190.14 135.177 1190.14 140.082C1190.14 146.645 1191.63 152.644 1194.62 158.08C1197.67 163.515 1201.77 167.857 1206.95 171.105C1212.18 174.353 1218.11 175.977 1224.74 175.977ZM1406.01 209.784C1391.95 209.784 1379.43 207.199 1368.42 202.028C1357.49 196.858 1348.8 189.732 1342.37 180.651C1335.94 171.569 1332.59 161.162 1332.33 149.429H1374.09C1374.55 157.317 1377.87 163.714 1384.03 168.619C1390.2 173.525 1397.52 175.977 1406.01 175.977C1412.77 175.977 1418.74 174.486 1423.91 171.503C1429.14 168.454 1433.22 164.244 1436.14 158.875C1439.12 153.439 1440.61 147.208 1440.61 140.182C1440.61 133.023 1439.09 126.725 1436.04 121.29C1433.05 115.854 1428.91 111.612 1423.61 108.562C1418.3 105.513 1412.24 103.955 1405.41 103.889C1399.45 103.889 1393.65 105.116 1388.01 107.568C1382.44 110.021 1378.1 113.368 1374.99 117.611L1336.7 110.75L1346.35 3.36363H1470.84V38.5625H1381.85L1376.58 89.571H1377.77C1381.35 84.5331 1386.75 80.357 1393.98 77.0426C1401.2 73.7282 1409.29 72.071 1418.24 72.071C1430.5 72.071 1441.44 74.9545 1451.05 80.7216C1460.66 86.4886 1468.25 94.41 1473.82 104.486C1479.39 114.495 1482.14 126.029 1482.07 139.088C1482.14 152.81 1478.96 165.007 1472.53 175.679C1466.17 186.285 1457.25 194.637 1445.78 200.736C1434.38 206.768 1421.12 209.784 1406.01 209.784Z" fill="url(#paint6_linear_1_16)"/>
</g>
<defs>
<linearGradient id="paint0_linear_1_16" x1="99.3598" y1="8.7459" x2="99.3598" y2="205.572" gradientUnits="userSpaceOnUse">
<stop stop-color="#BE2CAD"/>
<stop offset="0.5083" stop-color="#AA289C"/>
<stop offset="1" stop-color="#97238A"/>
</linearGradient>
<linearGradient id="paint1_linear_1_16" x1="311.422" y1="8.76561" x2="311.422" y2="205.552" gradientUnits="userSpaceOnUse">
<stop stop-color="#BE2CAD"/>
<stop offset="0.5083" stop-color="#AA289C"/>
<stop offset="1" stop-color="#97238A"/>
</linearGradient>
<linearGradient id="paint2_linear_1_16" x1="552.112" y1="8.15231" x2="552.112" y2="215.543" gradientUnits="userSpaceOnUse">
<stop stop-color="#F3F2F3"/>
<stop offset="0.5097" stop-color="#DEDCDE"/>
<stop offset="1" stop-color="#CBCCCC"/>
</linearGradient>
<linearGradient id="paint3_linear_1_16" x1="719.308" y1="8.15229" x2="719.308" y2="215.543" gradientUnits="userSpaceOnUse">
<stop stop-color="#F3F2F3"/>
<stop offset="0.5097" stop-color="#DEDCDE"/>
<stop offset="1" stop-color="#CBCCCC"/>
</linearGradient>
<linearGradient id="paint4_linear_1_16" x1="858.521" y1="8.1523" x2="858.521" y2="215.543" gradientUnits="userSpaceOnUse">
<stop stop-color="#F3F2F3"/>
<stop offset="0.5097" stop-color="#DEDCDE"/>
<stop offset="1" stop-color="#CBCCCC"/>
</linearGradient>
<linearGradient id="paint5_linear_1_16" x1="1524.29" y1="8.15242" x2="1524.29" y2="215.543" gradientUnits="userSpaceOnUse">
<stop stop-color="#F3F2F3"/>
<stop offset="0.5097" stop-color="#DEDCDE"/>
<stop offset="1" stop-color="#CBCCCC"/>
</linearGradient>
<linearGradient id="paint6_linear_1_16" x1="1240.74" y1="-63.9053" x2="1240.74" y2="220.075" gradientUnits="userSpaceOnUse">
<stop stop-color="#BE2CAD"/>
<stop offset="0.5083" stop-color="#AA289C"/>
<stop offset="1" stop-color="#97238A"/>
</linearGradient>
<clipPath id="clip0_1_16">
<rect width="523" height="210" fill="white" transform="translate(960)"/>
</clipPath>
</defs>
</svg>
